<svg width="384" height="51" viewBox="0 0 384 51" fill="none" xmlns="http://www.w3.org/2000/svg">
<path d="M0.625 51V34.125H6.25V51H0.625ZM28.75 51V34.125H34.375V51H28.75ZM6.25 34.125V17.25H11.875V28.5H23.125V17.25H28.75V34.125H6.25ZM11.875 17.25V6H23.125V17.25H11.875ZM62.5 28.5V22.875H68.125V28.5H62.5ZM40 51V17.25H45.625V22.875H51.25V28.5H45.625V51H40ZM51.25 22.875V17.25H62.5V22.875H51.25ZM90.625 51V45.375H107.5V51H90.625ZM85 45.375V6H90.625V17.25H107.5V22.875H90.625V45.375H85ZM118.75 45.375V34.125H124.375V45.375H118.75ZM124.375 51V45.375H141.25V34.125H124.375V28.5H141.25V22.875H146.875V51H124.375ZM124.375 22.875V17.25H141.25V22.875H124.375ZM175 51V45.375H180.625V51H175ZM169.375 45.375V6H163.75V0.375H175V45.375H169.375ZM197.5 45.375V34.125H203.125V45.375H197.5ZM203.125 51V45.375H220V34.125H203.125V28.5H220V22.875H225.625V51H203.125ZM203.125 22.875V17.25H220V22.875H203.125ZM236.875 51V45.375H242.5V51H236.875ZM259.375 51V45.375H265V51H259.375ZM242.5 45.375V39.75H248.125V45.375H242.5ZM253.75 45.375V39.75H259.375V45.375H253.75ZM248.125 39.75V28.5H253.75V39.75H248.125ZM242.5 28.5V22.875H248.125V28.5H242.5ZM253.75 28.5V22.875H259.375V28.5H253.75ZM236.875 22.875V17.25H242.5V22.875H236.875ZM259.375 22.875V17.25H265V22.875H259.375ZM287.5 51V22.875H281.875V17.25H293.125V51H287.5ZM287.5 6V0.375H293.125V6H287.5ZM321.25 51V45.375H338.125V51H321.25ZM338.125 45.375V39.75H343.75V45.375H338.125ZM315.625 45.375V22.875H321.25V28.5H338.125V22.875H343.75V34.125H321.25V45.375H315.625ZM321.25 22.875V17.25H338.125V22.875H321.25ZM355 51V45.375H377.5V51H355ZM377.5 45.375V39.75H383.125V45.375H377.5ZM371.875 39.75V34.125H377.5V39.75H371.875ZM360.625 34.125V28.5H371.875V34.125H360.625ZM355 28.5V22.875H360.625V28.5H355ZM360.625 22.875V17.25H383.125V22.875H360.625Z" fill="white"/>
</svg>
